<svg xmlns="http://www.w3.org/2000/svg" viewBox="0 0 32 32" width="32" height="32">
  <!-- Flat, high-contrast favicon: hazard-yellow skull on black background -->
  <rect x="0" y="0" width="32" height="32" fill="#000000"/>
  <g fill="#f59e0b">
    <path d="M16 5c-4.8 0-9 3.7-9 8.6 0 2.6 1.1 4.9 3 6.5v2.2c0 .9.7 1.6 1.6 1.6h.8c.9 0 1.6-.7 1.6-1.6v-.9h2v.9c0 .9.7 1.6 1.6 1.6h.8c.9 0 1.6-.7 1.6-1.6v-2.2c1.9-1.6 3-3.9 3-6.5C25 8.7 20.8 5 16 5z"/>
  </g>
  <g fill="#000000">
    <ellipse cx="12.5" cy="14" rx="2.1" ry="2.4"/>
    <ellipse cx="19.5" cy="14" rx="2.1" ry="2.4"/>
    <path d="M16 16.8l-1.7 2.6h3.4L16 16.8z"/>
    <rect x="13.2" y="21.2" width="1.2" height="2.2"/>
    <rect x="15.4" y="21.2" width="1.2" height="2.2"/>
    <rect x="17.6" y="21.2" width="1.2" height="2.2"/>
  </g>
</svg>
